<svg data-v-fde0c5aa="" xmlns="http://www.w3.org/2000/svg" viewBox="0 0 300 300" class="iconAbove"><!----><defs data-v-fde0c5aa=""><!----></defs><rect data-v-fde0c5aa="" fill="transparent" x="0" y="0" width="300px" height="300px" class="logo-background-square"></rect><defs data-v-fde0c5aa=""><!----></defs><g data-v-fde0c5aa="" id="61e0fd6c-65de-498c-bf1e-aa9a0af92909" fill="#1F1818" transform="matrix(2.412818193435669,0,0,2.412818193435669,19.104618284637134,167.6239396795476)"><path d="M5.39 5.83L5.39 5.83L5.39 5.83Q5.63 5.60 5.63 5.49L5.63 5.49L5.63 5.49Q5.63 5.39 5.53 5.31L5.53 5.31L5.53 5.31Q5.43 5.24 5.27 5.18L5.27 5.18L5.27 5.18Q5.12 5.13 4.93 5.09L4.93 5.09L4.93 5.09Q4.74 5.05 4.57 5.03L4.57 5.03L4.57 5.03Q4.21 4.99 3.96 4.99L3.96 4.99L3.96 4.99Q3.71 4.99 3.39 5.04L3.39 5.04L3.39 5.04Q3.06 5.09 2.79 5.22L2.79 5.22L2.79 5.22Q2.17 5.54 2.17 6.16L2.17 6.16L2.17 6.16Q2.17 6.78 2.40 7.15L2.40 7.15L2.40 7.15Q2.63 7.53 2.99 7.77L2.99 7.77L2.99 7.77Q3.36 8.02 3.84 8.18L3.84 8.18L3.84 8.18Q4.31 8.35 4.81 8.49L4.81 8.49L4.81 8.49Q5.31 8.63 5.79 8.80L5.79 8.80L5.79 8.80Q6.26 8.96 6.63 9.21L6.63 9.21L6.63 9.21Q7.46 9.78 7.46 10.79L7.46 10.79L7.46 10.79Q7.46 11.79 6.62 12.63L6.62 12.63L6.62 12.63Q5.90 13.36 4.71 13.82L4.71 13.82L4.71 13.82Q3.64 14.25 2.65 14.25L2.65 14.25L2.65 14.25Q2.04 14.25 1.55 14.10L1.55 14.10L1.55 14.10Q1.05 13.96 0.85 13.85L0.85 13.85L0.85 13.85Q0.37 13.61 0.37 13.28L0.37 13.28L0.37 13.28Q0.37 12.76 1.93 11.90L1.93 11.90L1.93 11.90Q1.73 12.13 1.73 12.34L1.73 12.34L1.73 12.34Q1.73 12.54 1.86 12.69L1.86 12.69L1.86 12.69Q2.00 12.84 2.21 12.94L2.21 12.94L2.21 12.94Q2.42 13.05 2.68 13.12L2.68 13.12L2.68 13.12Q2.95 13.19 3.21 13.23L3.21 13.23L3.21 13.23Q3.68 13.30 4.07 13.30L4.07 13.30L4.07 13.30Q4.46 13.30 4.84 13.23L4.84 13.23L4.84 13.23Q5.22 13.16 5.51 12.98L5.51 12.98L5.51 12.98Q6.17 12.58 6.17 11.73L6.17 11.73L6.17 11.73Q6.17 10.40 4.49 9.76L4.49 9.76L4.49 9.76Q4.01 9.58 3.51 9.42L3.51 9.42L3.51 9.42Q3.01 9.26 2.53 9.09L2.53 9.09L2.53 9.09Q2.05 8.92 1.68 8.68L1.68 8.68L1.68 8.68Q0.85 8.13 0.85 7.24L0.85 7.24L0.85 7.24Q0.85 6.49 1.69 5.70L1.69 5.70L1.69 5.70Q2.41 5.02 3.51 4.53L3.51 4.53L3.51 4.53Q4.56 4.05 5.30 4.05L5.30 4.05L5.30 4.05Q5.96 4.05 6.36 4.18L6.36 4.18L6.36 4.18Q6.77 4.30 6.87 4.36L6.87 4.36L6.87 4.36Q6.98 4.43 6.98 4.52L6.98 4.52L6.98 4.52Q6.98 4.60 6.88 4.72L6.88 4.72L6.88 4.72Q6.79 4.84 6.64 4.98L6.64 4.98L6.64 4.98Q6.49 5.11 6.31 5.25L6.31 5.25L6.31 5.25Q6.13 5.39 5.95 5.50L5.95 5.50L5.95 5.50Q5.54 5.77 5.39 5.83ZM12.97 9.28L12.97 12.06L12.96 12.54L12.96 12.54Q12.96 13.07 13.26 13.21L13.26 13.21L13.26 13.21Q13.38 13.27 13.53 13.27L13.53 13.27L13.53 13.27Q13.77 13.27 14.02 13.16L14.02 13.16L14.02 13.16Q13.76 13.27 13.57 13.45L13.57 13.45L13.57 13.45Q13.38 13.62 13.18 13.79L13.18 13.79L13.18 13.79Q12.69 14.21 12.19 14.21L12.19 14.21L12.19 14.21Q11.69 14.21 11.66 13.63L11.66 13.63L11.66 13.63Q11.64 13.48 11.64 13.33L11.64 13.33L11.64 13.33Q10.41 14.18 9.39 14.18L9.39 14.18L9.39 14.18Q8.52 14.18 8.18 13.66L8.18 13.66L8.18 13.66Q8.06 13.47 8.06 13.13L8.06 13.13L8.06 13.13Q8.06 12.80 8.26 12.46L8.26 12.46L8.26 12.46Q8.47 12.12 8.78 11.84L8.78 11.84L8.78 11.84Q9.34 11.32 10.14 10.99L10.14 10.99L10.14 10.99Q10.73 10.73 11.65 10.70L11.65 10.70L11.65 10.40L11.65 10.40Q11.65 9.31 11.45 8.93L11.45 8.93L11.45 8.93Q11.25 8.54 10.94 8.36L10.94 8.36L10.94 8.36Q10.62 8.18 10.20 8.18L10.20 8.18L10.20 8.18Q9.48 8.18 8.93 8.46L8.93 8.46L8.93 8.46Q9.69 7.84 10.04 7.64L10.04 7.64L10.04 7.64Q10.75 7.24 11.34 7.24L11.34 7.24L11.34 7.24Q11.92 7.24 12.22 7.41L12.22 7.41L12.22 7.41Q12.51 7.58 12.68 7.86L12.68 7.86L12.68 7.86Q12.97 8.35 12.97 9.28L12.97 9.28ZM9.76 13.04L9.76 13.04L9.76 13.04Q9.93 13.16 10.14 13.21L10.14 13.21L10.14 13.21Q10.36 13.27 10.79 13.27L10.79 13.27L10.79 13.27Q11.22 13.27 11.65 13.06L11.65 13.06L11.65 11.63L10.54 11.63L10.54 11.63Q9.95 11.63 9.50 11.71L9.50 11.71L9.50 11.71Q9.41 12.00 9.41 12.27L9.41 12.27L9.41 12.27Q9.41 12.54 9.51 12.73L9.51 12.73L9.51 12.73Q9.60 12.92 9.76 13.04ZM15.40 3.41L16.73 2.48L16.77 3.26L16.77 3.62L16.77 3.62Q16.77 3.94 16.69 4.02L16.69 4.02L16.69 4.02Q16.60 4.09 16.51 4.16L16.51 4.16L16.51 4.16Q16.13 4.43 15.40 4.89L15.40 4.89L15.40 4.89Q15.44 4.21 15.44 4.19L15.44 4.19L15.44 4.19Q15.44 4.16 15.40 3.41L15.40 3.41ZM18.16 13.24L18.16 13.24L18.16 13.24Q17.95 13.41 17.76 13.58L17.76 13.58L17.76 13.58Q17.56 13.75 17.35 13.89L17.35 13.89L17.35 13.89Q16.86 14.21 16.41 14.21L16.41 14.21L16.41 14.21Q15.98 14.21 15.81 14.08L15.81 14.08L15.81 14.08Q15.46 13.82 15.46 13.13L15.46 13.13L15.46 9.88L15.46 9.88Q15.46 9.15 15.20 8.93L15.20 8.93L15.20 8.93Q15.07 8.83 14.93 8.83L14.93 8.83L14.93 8.83Q14.79 8.83 14.69 8.84L14.69 8.84L14.69 8.84Q14.59 8.86 14.49 8.88L14.49 8.88L14.49 8.88Q14.38 8.90 14.27 8.92L14.27 8.92L14.27 8.92Q14.62 8.65 14.91 8.44L14.91 8.44L14.91 8.44Q15.21 8.23 15.42 8.09L15.42 8.09L15.42 8.09Q15.63 7.94 16.01 7.68L16.01 7.68L16.01 7.68Q16.39 7.42 16.79 7.21L16.79 7.21L16.79 12.03L16.79 12.03Q16.79 12.73 16.88 12.91L16.88 12.91L16.88 12.91Q17.07 13.29 17.73 13.29L17.73 13.29L17.73 13.29Q17.90 13.29 18.16 13.24ZM23.24 5.17L21.96 5.17L21.96 5.17Q23.09 4.25 23.28 4.25L23.28 4.25L26.40 4.25L26.40 4.25Q26.31 4.26 25.98 4.55L25.98 4.55L25.98 4.55Q25.66 4.83 25.52 4.94L25.52 4.94L25.52 4.94Q25.21 5.17 25.07 5.17L25.07 5.17L24.57 5.17L24.57 11.43L24.57 11.43Q24.57 12.61 24.08 13.15L24.08 13.15L26.27 13.15L26.27 13.15Q26.17 13.17 25.85 13.45L25.85 13.45L25.85 13.45Q25.52 13.74 25.38 13.84L25.38 13.84L25.38 13.84Q25.07 14.08 24.94 14.08L24.94 14.08L22.62 14.08L22.62 14.08Q22.98 13.72 23.08 13.47L23.08 13.47L23.08 13.47Q23.24 13.06 23.24 12.45L23.24 12.45L23.24 5.17ZM27.74 13.62L27.74 13.62L27.75 9.22L27.75 9.22Q27.75 8.76 27.62 8.61L27.62 8.61L27.62 8.61Q27.41 8.33 27.04 8.33L27.04 8.33L27.04 8.33Q26.66 8.33 26.37 8.44L26.37 8.44L26.37 8.44Q26.54 8.37 26.83 8.12L26.83 8.12L26.83 8.12Q27.36 7.64 27.58 7.55L27.58 7.55L27.58 7.55Q27.99 7.39 28.30 7.39L28.30 7.39L28.30 7.39Q28.61 7.39 28.76 7.49L28.76 7.49L28.76 7.49Q28.92 7.59 28.98 7.77L28.98 7.77L28.98 7.77Q29.07 7.98 29.07 8.57L29.07 8.57L29.07 8.57Q30.35 7.44 31.47 7.44L31.47 7.44L31.47 7.44Q32.07 7.44 32.53 7.83L32.53 7.83L32.53 7.83Q33.00 8.24 33.00 8.83L33.00 8.83L33.00 12.20L33.00 12.20Q33.00 12.71 33.11 12.90L33.11 12.90L33.11 12.90Q33.31 13.26 33.79 13.26L33.79 13.26L33.79 13.26Q34.06 13.26 34.31 13.16L34.31 13.16L34.31 13.16Q33.70 13.69 33.47 13.84L33.47 13.84L33.47 13.84Q32.94 14.18 32.54 14.18L32.54 14.18L32.54 14.18Q32.14 14.18 31.97 14.04L31.97 14.04L31.97 14.04Q31.80 13.90 31.73 13.68L31.73 13.68L31.73 13.68Q31.66 13.44 31.66 12.70L31.66 12.70L31.66 10.14L31.66 10.14Q31.66 8.92 30.86 8.53L30.86 8.53L30.86 8.53Q30.57 8.39 30.17 8.39L30.17 8.39L30.17 8.39Q29.18 8.39 29.09 9.86L29.09 9.86L29.09 9.86Q29.07 10.23 29.07 10.53L29.07 10.53L29.07 12.64L29.07 12.64Q29.07 13.08 29.34 13.23L29.34 13.23L29.34 13.23Q29.44 13.30 29.58 13.30L29.58 13.30L29.58 13.30Q29.72 13.30 29.88 13.23L29.88 13.23L29.88 13.23Q29.74 13.35 29.54 13.52L29.54 13.52L29.54 13.52Q29.34 13.69 29.12 13.85L29.12 13.85L29.12 13.85Q28.58 14.22 28.26 14.22L28.26 14.22L28.26 14.22Q27.74 14.22 27.74 13.62ZM37.04 7.86L37.04 7.86Q37.52 7.59 38.04 7.45L38.04 7.45L38.04 7.45Q38.57 7.30 38.93 7.30L38.93 7.30L38.93 7.30Q39.29 7.30 39.57 7.35L39.57 7.35L39.57 5.11L39.57 5.11Q39.57 4.38 39.30 4.14L39.30 4.14L39.30 4.14Q39.18 4.03 39.00 4.03L39.00 4.03L39.00 4.03Q38.79 4.03 38.38 4.13L38.38 4.13L38.38 4.13Q40.09 2.82 40.89 2.41L40.89 2.41L40.89 12.19L40.89 12.19Q40.89 12.74 41.01 12.92L41.01 12.92L41.01 12.92Q41.21 13.26 41.72 13.26L41.72 13.26L41.72 13.26Q41.92 13.26 42.12 13.22L42.12 13.22L42.12 13.22Q41.92 13.38 41.73 13.55L41.73 13.55L41.73 13.55Q41.54 13.72 41.32 13.86L41.32 13.86L41.32 13.86Q40.84 14.19 40.47 14.19L40.47 14.19L40.47 14.19Q40.10 14.19 39.94 14.12L39.94 14.12L39.94 14.12Q39.78 14.05 39.69 13.92L39.69 13.92L39.69 13.92Q39.55 13.73 39.55 13.18L39.55 13.18L39.55 13.18Q38.15 14.22 37.30 14.22L37.30 14.22L37.30 14.22Q36.05 14.22 35.39 13.38L35.39 13.38L35.39 13.38Q34.77 12.62 34.77 11.33L34.77 11.33L34.77 11.33Q34.77 10.28 35.43 9.32L35.43 9.32L35.43 9.32Q36.04 8.42 37.04 7.86L37.04 7.86ZM39.57 12.60L39.57 9.21L39.57 9.21Q39.26 8.72 38.77 8.47L38.77 8.47L38.77 8.47Q38.27 8.22 37.74 8.22L37.74 8.22L37.74 8.22Q37.21 8.22 36.89 8.40L36.89 8.40L36.89 8.40Q36.58 8.58 36.40 8.88L36.40 8.88L36.40 8.88Q36.09 9.40 36.09 10.18L36.09 10.18L36.09 10.18Q36.09 10.96 36.23 11.49L36.23 11.49L36.23 11.49Q36.37 12.02 36.66 12.43L36.66 12.43L36.66 12.43Q37.30 13.30 38.54 13.30L38.54 13.30L38.54 13.30Q38.81 13.30 39.07 13.14L39.07 13.14L39.07 13.14Q39.57 12.85 39.57 12.60L39.57 12.60ZM43.50 3.41L44.82 2.48L44.86 3.26L44.86 3.62L44.86 3.62Q44.86 3.94 44.78 4.02L44.78 4.02L44.78 4.02Q44.70 4.09 44.60 4.16L44.60 4.16L44.60 4.16Q44.22 4.43 43.50 4.89L43.50 4.89L43.50 4.89Q43.53 4.21 43.53 4.19L43.53 4.19L43.53 4.19Q43.53 4.16 43.50 3.41L43.50 3.41ZM46.25 13.24L46.25 13.24L46.25 13.24Q46.05 13.41 45.85 13.58L45.85 13.58L45.85 13.58Q45.66 13.75 45.45 13.89L45.45 13.89L45.45 13.89Q44.95 14.21 44.50 14.21L44.50 14.21L44.50 14.21Q44.08 14.21 43.91 14.08L43.91 14.08L43.91 14.08Q43.56 13.82 43.56 13.13L43.56 13.13L43.56 9.88L43.56 9.88Q43.56 9.15 43.29 8.93L43.29 8.93L43.29 8.93Q43.17 8.83 43.03 8.83L43.03 8.83L43.03 8.83Q42.88 8.83 42.78 8.84L42.78 8.84L42.78 8.84Q42.68 8.86 42.58 8.88L42.58 8.88L42.58 8.88Q42.48 8.90 42.37 8.92L42.37 8.92L42.37 8.92Q42.71 8.65 43.01 8.44L43.01 8.44L43.01 8.44Q43.31 8.23 43.52 8.09L43.52 8.09L43.52 8.09Q43.73 7.94 44.11 7.68L44.11 7.68L44.11 7.68Q44.48 7.42 44.88 7.21L44.88 7.21L44.88 12.03L44.88 12.03Q44.88 12.73 44.97 12.91L44.97 12.91L44.97 12.91Q45.17 13.29 45.82 13.29L45.82 13.29L45.82 13.29Q46.00 13.29 46.25 13.24ZM51.38 9.28L51.38 12.06L51.37 12.54L51.37 12.54Q51.37 13.07 51.67 13.21L51.67 13.21L51.67 13.21Q51.78 13.27 51.93 13.27L51.93 13.27L51.93 13.27Q52.17 13.27 52.42 13.16L52.42 13.16L52.42 13.16Q52.17 13.27 51.97 13.45L51.97 13.45L51.97 13.45Q51.78 13.62 51.58 13.79L51.58 13.79L51.58 13.79Q51.09 14.21 50.59 14.21L50.59 14.21L50.59 14.21Q50.09 14.21 50.06 13.63L50.06 13.63L50.06 13.63Q50.05 13.48 50.05 13.33L50.05 13.33L50.05 13.33Q48.82 14.18 47.79 14.18L47.79 14.18L47.79 14.18Q46.92 14.18 46.59 13.66L46.59 13.66L46.59 13.66Q46.46 13.47 46.46 13.13L46.46 13.13L46.46 13.13Q46.46 12.80 46.67 12.46L46.67 12.46L46.67 12.46Q46.87 12.12 47.19 11.84L47.19 11.84L47.19 11.84Q47.75 11.32 48.54 10.99L48.54 10.99L48.54 10.99Q49.13 10.73 50.05 10.70L50.05 10.70L50.05 10.40L50.05 10.40Q50.05 9.31 49.85 8.93L49.85 8.93L49.85 8.93Q49.66 8.54 49.34 8.36L49.34 8.36L49.34 8.36Q49.03 8.18 48.60 8.18L48.60 8.18L48.60 8.18Q47.89 8.18 47.34 8.46L47.34 8.46L47.34 8.46Q48.09 7.84 48.44 7.64L48.44 7.64L48.44 7.64Q49.16 7.24 49.74 7.24L49.74 7.24L49.74 7.24Q50.33 7.24 50.62 7.41L50.62 7.41L50.62 7.41Q50.91 7.58 51.08 7.86L51.08 7.86L51.08 7.86Q51.38 8.35 51.38 9.28L51.38 9.28ZM48.17 13.04L48.17 13.04L48.17 13.04Q48.33 13.16 48.55 13.21L48.55 13.21L48.55 13.21Q48.77 13.27 49.20 13.27L49.20 13.27L49.20 13.27Q49.63 13.27 50.05 13.06L50.05 13.06L50.05 11.63L48.95 11.63L48.95 11.63Q48.35 11.63 47.91 11.71L47.91 11.71L47.91 11.71Q47.82 12.00 47.82 12.27L47.82 12.27L47.82 12.27Q47.82 12.54 47.91 12.73L47.91 12.73L47.91 12.73Q48.00 12.92 48.17 13.04ZM53.89 13.62L53.89 13.62L53.89 9.22L53.89 9.22Q53.89 8.76 53.77 8.61L53.77 8.61L53.77 8.61Q53.56 8.33 53.18 8.33L53.18 8.33L53.18 8.33Q52.81 8.33 52.51 8.44L52.51 8.44L52.51 8.44Q52.69 8.37 52.98 8.12L52.98 8.12L52.98 8.12Q53.50 7.64 53.72 7.55L53.72 7.55L53.72 7.55Q54.13 7.39 54.44 7.39L54.44 7.39L54.44 7.39Q54.76 7.39 54.91 7.49L54.91 7.49L54.91 7.49Q55.06 7.59 55.13 7.77L55.13 7.77L55.13 7.77Q55.22 7.98 55.22 8.57L55.22 8.57L55.22 8.57Q56.50 7.44 57.61 7.44L57.61 7.44L57.61 7.44Q58.22 7.44 58.67 7.83L58.67 7.83L58.67 7.83Q59.14 8.24 59.14 8.83L59.14 8.83L59.14 12.20L59.14 12.20Q59.14 12.71 59.25 12.90L59.25 12.90L59.25 12.90Q59.46 13.26 59.94 13.26L59.94 13.26L59.94 13.26Q60.21 13.26 60.46 13.16L60.46 13.16L60.46 13.16Q59.85 13.69 59.62 13.84L59.62 13.84L59.62 13.84Q59.08 14.18 58.68 14.18L58.68 14.18L58.68 14.18Q58.28 14.18 58.12 14.04L58.12 14.04L58.12 14.04Q57.95 13.90 57.88 13.68L57.88 13.68L57.88 13.68Q57.80 13.44 57.80 12.70L57.80 12.70L57.80 10.14L57.80 10.14Q57.80 8.92 57.00 8.53L57.00 8.53L57.00 8.53Q56.72 8.39 56.31 8.39L56.31 8.39L56.31 8.39Q55.32 8.39 55.24 9.86L55.24 9.86L55.24 9.86Q55.22 10.23 55.22 10.53L55.22 10.53L55.22 12.64L55.22 12.64Q55.22 13.08 55.49 13.23L55.49 13.23L55.49 13.23Q55.58 13.30 55.73 13.30L55.73 13.30L55.73 13.30Q55.87 13.30 56.03 13.23L56.03 13.23L56.03 13.23Q55.88 13.35 55.69 13.52L55.69 13.52L55.69 13.52Q55.49 13.69 55.27 13.85L55.27 13.85L55.27 13.85Q54.73 14.22 54.41 14.22L54.41 14.22L54.41 14.22Q53.89 14.22 53.89 13.62ZM72.37 4.10L72.37 4.10L72.37 4.10Q72.86 4.23 73.00 4.29L73.00 4.29L73.00 4.29Q73.13 4.35 73.13 4.41L73.13 4.41L73.13 4.41Q73.13 4.47 73.02 4.57L73.02 4.57L73.02 4.57Q72.91 4.68 72.75 4.80L72.75 4.80L72.75 4.80Q72.58 4.93 72.39 5.07L72.39 5.07L72.39 5.07Q72.19 5.22 72.01 5.33L72.01 5.33L72.01 5.33Q71.59 5.61 71.50 5.64L71.50 5.64L71.50 5.64Q71.51 5.61 71.61 5.54L71.61 5.54L71.61 5.54Q71.78 5.39 71.78 5.36L71.78 5.36L71.78 5.36Q71.78 5.32 71.75 5.29L71.75 5.29L71.75 5.29Q71.72 5.27 71.69 5.25L71.69 5.25L71.69 5.25Q71.65 5.24 71.61 5.22L71.61 5.22L71.61 5.22Q71.58 5.21 71.35 5.13L71.35 5.13L71.35 5.13Q70.81 4.92 69.80 4.92L69.80 4.92L69.80 4.92Q68.79 4.92 68.06 5.15L68.06 5.15L68.06 5.15Q67.32 5.39 66.81 5.87L66.81 5.87L66.81 5.87Q65.75 6.86 65.75 8.75L65.75 8.75L65.75 8.75Q65.75 10.67 66.80 12.00L66.80 12.00L66.80 12.00Q67.94 13.42 69.78 13.42L69.78 13.42L69.78 13.42Q71.00 13.42 72.78 12.64L72.78 12.64L72.78 12.64Q72.73 12.69 72.68 12.73L72.68 12.73L72.68 12.73Q72.61 12.80 72.51 12.89L72.51 12.89L72.51 12.89Q70.52 14.38 68.39 14.38L68.39 14.38L68.39 14.38Q66.55 14.38 65.45 12.99L65.45 12.99L65.45 12.99Q64.43 11.70 64.43 9.78L64.43 9.78L64.43 9.78Q64.43 8.80 64.72 8.12L64.72 8.12L64.72 8.12Q65.01 7.44 65.40 6.90L65.40 6.90L65.40 6.90Q65.79 6.37 66.28 5.92L66.28 5.92L66.28 5.92Q66.78 5.47 67.36 5.11L67.36 5.11L67.36 5.11Q67.94 4.75 68.56 4.50L68.56 4.50L68.56 4.50Q69.84 3.98 71.13 3.98L71.13 3.98L71.13 3.98Q71.87 3.98 72.37 4.10ZM77.60 8.42L77.60 8.42L77.60 8.42Q78.70 7.43 79.21 7.43L79.21 7.43L79.21 7.43Q79.73 7.43 79.73 8.09L79.73 8.09L79.73 12.43L79.73 12.43Q79.73 12.84 79.91 13.04L79.91 13.04L79.91 13.04Q80.10 13.25 80.53 13.25L80.53 13.25L80.53 13.25Q80.83 13.25 81.12 13.14L81.12 13.14L81.12 13.14Q80.89 13.22 80.71 13.40L80.71 13.40L80.71 13.40Q80.53 13.57 80.32 13.75L80.32 13.75L80.32 13.75Q79.81 14.19 79.15 14.19L79.15 14.19L79.15 14.19Q78.52 14.19 78.44 13.49L78.44 13.49L78.44 13.49Q78.42 13.30 78.41 13.09L78.41 13.09L78.41 13.09Q76.92 14.22 75.76 14.22L75.76 14.22L75.76 14.22Q74.98 14.22 74.59 13.54L74.59 13.54L74.59 13.54Q74.23 12.92 74.23 11.85L74.23 11.85L74.23 9.55L74.23 9.55Q74.23 8.96 74.13 8.74L74.13 8.74L74.13 8.74Q73.94 8.32 73.44 8.32L73.44 8.32L73.44 8.32Q73.20 8.32 72.95 8.42L72.95 8.42L72.95 8.42Q73.79 7.68 74.31 7.48L74.31 7.48L74.31 7.48Q74.56 7.38 74.83 7.38L74.83 7.38L74.83 7.38Q75.58 7.38 75.58 8.33L75.58 8.33L75.58 8.33Q75.58 8.33 75.58 8.78L75.58 8.78L75.58 8.78Q75.58 8.78 75.57 11.33L75.57 11.33L75.57 11.33Q75.57 12.31 75.93 12.77L75.93 12.77L75.93 12.77Q76.33 13.29 77.25 13.29L77.25 13.29L77.25 13.29Q77.70 13.29 78.19 12.90L78.19 12.90L78.19 12.90Q78.31 12.80 78.41 12.74L78.41 12.74L78.41 9.13L78.41 9.13Q78.41 8.62 78.16 8.43L78.16 8.43L78.16 8.43Q78.06 8.35 77.91 8.35L77.91 8.35L77.91 8.35Q77.76 8.35 77.60 8.42ZM82.24 3.41L83.56 2.48L83.60 3.26L83.60 3.62L83.60 3.62Q83.60 3.94 83.52 4.02L83.52 4.02L83.52 4.02Q83.44 4.09 83.34 4.16L83.34 4.16L83.34 4.16Q82.96 4.43 82.24 4.89L82.24 4.89L82.24 4.89Q82.27 4.21 82.27 4.19L82.27 4.19L82.27 4.19Q82.27 4.16 82.24 3.41L82.24 3.41ZM84.99 13.24L84.99 13.24L84.99 13.24Q84.79 13.41 84.59 13.58L84.59 13.58L84.59 13.58Q84.40 13.75 84.18 13.89L84.18 13.89L84.18 13.89Q83.69 14.21 83.24 14.21L83.24 14.21L83.24 14.21Q82.82 14.21 82.65 14.08L82.65 14.08L82.65 14.08Q82.30 13.82 82.30 13.13L82.30 13.13L82.30 9.88L82.30 9.88Q82.30 9.15 82.03 8.93L82.03 8.93L82.03 8.93Q81.91 8.83 81.76 8.83L81.76 8.83L81.76 8.83Q81.62 8.83 81.52 8.84L81.52 8.84L81.52 8.84Q81.42 8.86 81.32 8.88L81.32 8.88L81.32 8.88Q81.22 8.90 81.11 8.92L81.11 8.92L81.11 8.92Q81.45 8.65 81.75 8.44L81.75 8.44L81.75 8.44Q82.04 8.23 82.26 8.09L82.26 8.09L82.26 8.09Q82.47 7.94 82.84 7.68L82.84 7.68L82.84 7.68Q83.22 7.42 83.62 7.21L83.62 7.21L83.62 12.03L83.62 12.03Q83.62 12.73 83.71 12.91L83.71 12.91L83.71 12.91Q83.90 13.29 84.56 13.29L84.56 13.29L84.56 13.29Q84.74 13.29 84.99 13.24ZM88.47 8.78L88.47 8.78L88.47 8.78Q88.60 8.68 88.60 8.57L88.60 8.57L88.60 8.57Q88.60 8.46 88.47 8.40L88.47 8.40L88.47 8.40Q88.34 8.34 88.17 8.31L88.17 8.31L88.17 8.31Q87.90 8.25 87.67 8.25L87.67 8.25L87.67 8.25Q87.45 8.25 87.32 8.27L87.32 8.27L87.32 8.27Q87.19 8.30 87.10 8.36L87.10 8.36L87.10 8.36Q86.91 8.49 86.91 8.82L86.91 8.82L86.91 8.82Q86.91 9.15 87.06 9.35L87.06 9.35L87.06 9.35Q87.20 9.56 87.44 9.71L87.44 9.71L87.44 9.71Q87.67 9.85 87.97 9.95L87.97 9.95L87.97 9.95Q88.27 10.04 88.58 10.13L88.58 10.13L88.58 10.13Q88.89 10.23 89.20 10.34L89.20 10.34L89.20 10.34Q89.50 10.45 89.73 10.62L89.73 10.62L89.73 10.62Q90.25 11.01 90.25 11.68L90.25 11.68L90.25 11.68Q90.25 12.34 89.62 12.97L89.62 12.97L89.62 12.97Q89.08 13.51 88.20 13.89L88.20 13.89L88.20 13.89Q87.38 14.25 86.73 14.25L86.73 14.25L86.73 14.25Q85.96 14.25 85.48 13.92L85.48 13.92L85.48 13.92Q85.31 13.79 85.31 13.60L85.31 13.60L85.31 13.60Q85.31 13.41 85.49 13.24L85.49 13.24L85.49 13.24Q85.67 13.08 85.91 12.94L85.91 12.94L85.91 12.94Q86.15 12.80 86.39 12.68L86.39 12.68L86.39 12.68Q86.63 12.55 86.75 12.41L86.75 12.41L86.75 12.41Q86.63 12.54 86.63 12.71L86.63 12.71L86.63 12.71Q86.63 12.89 86.82 13.01L86.82 13.01L86.82 13.01Q87.01 13.13 87.27 13.19L87.27 13.19L87.27 13.19Q87.72 13.30 88.14 13.30L88.14 13.30L88.14 13.30Q88.55 13.30 88.74 13.15L88.74 13.15L88.74 13.15Q88.93 13.00 88.93 12.63L88.93 12.63L88.93 12.63Q88.93 12.27 88.79 12.04L88.79 12.04L88.79 12.04Q88.64 11.81 88.41 11.65L88.41 11.65L88.41 11.65Q88.18 11.48 87.88 11.37L87.88 11.37L87.88 11.37Q87.58 11.26 87.26 11.15L87.26 11.15L87.26 11.15Q86.95 11.05 86.65 10.94L86.65 10.94L86.65 10.94Q86.35 10.83 86.12 10.67L86.12 10.67L86.12 10.67Q85.60 10.32 85.60 9.76L85.60 9.76L85.60 9.76Q85.60 9.23 86.23 8.62L86.23 8.62L86.23 8.62Q86.78 8.10 87.37 7.81L87.37 7.81L87.37 7.81Q88.39 7.31 88.91 7.31L88.91 7.31L88.91 7.31Q89.45 7.31 89.69 7.43L89.69 7.43L89.69 7.43Q89.93 7.55 89.93 7.63L89.93 7.63L89.93 7.63Q89.93 7.72 89.87 7.79L89.87 7.79L89.87 7.79Q89.82 7.85 89.74 7.91L89.74 7.91L89.74 7.91Q89.66 7.97 89.58 8.02L89.58 8.02L89.58 8.02Q89.50 8.07 89.35 8.16L89.35 8.16L89.35 8.16Q89.20 8.26 88.94 8.42L88.94 8.42L88.94 8.42Q88.69 8.58 88.47 8.78ZM91.88 3.41L93.21 2.48L93.25 3.26L93.25 3.62L93.25 3.62Q93.25 3.94 93.17 4.02L93.17 4.02L93.17 4.02Q93.08 4.09 92.99 4.16L92.99 4.16L92.99 4.16Q92.61 4.43 91.88 4.89L91.88 4.89L91.88 4.89Q91.92 4.21 91.92 4.19L91.92 4.19L91.92 4.19Q91.92 4.16 91.88 3.41L91.88 3.41ZM94.64 13.24L94.64 13.24L94.64 13.24Q94.43 13.41 94.24 13.58L94.24 13.58L94.24 13.58Q94.04 13.75 93.83 13.89L93.83 13.89L93.83 13.89Q93.34 14.21 92.89 14.21L92.89 14.21L92.89 14.21Q92.46 14.21 92.29 14.08L92.29 14.08L92.29 14.08Q91.94 13.82 91.94 13.13L91.94 13.13L91.94 9.88L91.94 9.88Q91.94 9.15 91.68 8.93L91.68 8.93L91.68 8.93Q91.55 8.83 91.41 8.83L91.41 8.83L91.41 8.83Q91.27 8.83 91.17 8.84L91.17 8.84L91.17 8.84Q91.07 8.86 90.97 8.88L90.97 8.88L90.97 8.88Q90.86 8.90 90.75 8.92L90.75 8.92L90.75 8.92Q91.10 8.65 91.39 8.44L91.39 8.44L91.39 8.44Q91.69 8.23 91.90 8.09L91.90 8.09L91.90 8.09Q92.11 7.94 92.49 7.68L92.49 7.68L92.49 7.68Q92.87 7.42 93.27 7.21L93.27 7.21L93.27 12.03L93.27 12.03Q93.27 12.73 93.36 12.91L93.36 12.91L93.36 12.91Q93.55 13.29 94.21 13.29L94.21 13.29L94.21 13.29Q94.38 13.29 94.64 13.24ZM95.92 13.62L95.92 13.62L95.92 9.22L95.92 9.22Q95.92 8.76 95.80 8.61L95.80 8.61L95.80 8.61Q95.59 8.33 95.21 8.33L95.21 8.33L95.21 8.33Q94.83 8.33 94.54 8.44L94.54 8.44L94.54 8.44Q94.72 8.37 95.01 8.12L95.01 8.12L95.01 8.12Q95.53 7.64 95.75 7.55L95.75 7.55L95.75 7.55Q96.16 7.39 96.47 7.39L96.47 7.39L96.47 7.39Q96.78 7.39 96.94 7.49L96.94 7.49L96.94 7.49Q97.09 7.59 97.16 7.77L97.16 7.77L97.16 7.77Q97.25 7.98 97.25 8.57L97.25 8.57L97.25 8.57Q98.53 7.44 99.64 7.44L99.64 7.44L99.64 7.44Q100.25 7.44 100.70 7.83L100.70 7.83L100.70 7.83Q101.17 8.24 101.17 8.83L101.17 8.83L101.17 12.20L101.17 12.20Q101.17 12.71 101.28 12.90L101.28 12.90L101.28 12.90Q101.49 13.26 101.96 13.26L101.96 13.26L101.96 13.26Q102.24 13.26 102.48 13.16L102.48 13.16L102.48 13.16Q101.88 13.69 101.64 13.84L101.64 13.84L101.64 13.84Q101.11 14.18 100.71 14.18L100.71 14.18L100.71 14.18Q100.31 14.18 100.14 14.04L100.14 14.04L100.14 14.04Q99.98 13.90 99.91 13.68L99.91 13.68L99.91 13.68Q99.83 13.44 99.83 12.70L99.83 12.70L99.83 10.14L99.83 10.14Q99.83 8.92 99.03 8.53L99.03 8.53L99.03 8.53Q98.75 8.39 98.34 8.39L98.34 8.39L98.34 8.39Q97.35 8.39 97.27 9.86L97.27 9.86L97.27 9.86Q97.25 10.23 97.25 10.53L97.25 10.53L97.25 12.64L97.25 12.64Q97.25 13.08 97.51 13.23L97.51 13.23L97.51 13.23Q97.61 13.30 97.75 13.30L97.75 13.30L97.75 13.30Q97.90 13.30 98.05 13.23L98.05 13.23L98.05 13.23Q97.91 13.35 97.71 13.52L97.71 13.52L97.71 13.52Q97.51 13.69 97.30 13.85L97.30 13.85L97.30 13.85Q96.76 14.22 96.43 14.22L96.43 14.22L96.43 14.22Q95.92 14.22 95.92 13.62ZM108.13 12.82L108.13 12.82L108.13 12.82Q107.19 13.86 105.81 14.12L105.81 14.12L105.81 14.12Q105.49 14.18 105.01 14.18L105.01 14.18L105.01 14.18Q104.54 14.18 104.13 13.91L104.13 13.91L104.13 13.91Q103.71 13.65 103.44 13.23L103.44 13.23L103.44 13.23Q102.94 12.43 102.94 11.27L102.94 11.27L102.94 11.27Q102.94 10.50 103.52 9.57L103.52 9.57L103.52 9.57Q104.10 8.65 104.92 8.04L104.92 8.04L104.92 8.04Q105.81 7.38 106.61 7.38L106.61 7.38L106.61 7.38Q107.02 7.38 107.30 7.68L107.30 7.68L107.30 7.68Q107.56 7.98 107.56 8.35L107.56 8.35L107.56 8.35Q107.56 8.73 107.39 9.05L107.39 9.05L107.39 9.05Q107.23 9.37 106.97 9.67L106.97 9.67L106.97 9.67Q106.70 9.97 106.36 10.24L106.36 10.24L106.36 10.24Q106.03 10.52 105.67 10.76L105.67 10.76L105.67 10.76Q105.17 11.10 104.41 11.53L104.41 11.53L104.41 11.53Q104.63 12.36 105.18 12.81L105.18 12.81L105.18 12.81Q105.74 13.25 106.61 13.25L106.61 13.25L106.61 13.25Q107.35 13.25 108.13 12.82ZM106.07 10.08L106.07 10.08L106.07 10.08Q106.25 9.78 106.25 9.50L106.25 9.50L106.25 9.50Q106.25 9.22 106.19 9.03L106.19 9.03L106.19 9.03Q106.13 8.83 106.01 8.68L106.01 8.68L106.01 8.68Q105.75 8.34 105.32 8.34L105.32 8.34L105.32 8.34Q104.28 8.34 104.28 10.46L104.28 10.46L104.28 10.46Q104.28 10.83 104.34 11.20L104.34 11.20L104.34 11.20Q105.55 10.87 106.07 10.08Z"></path></g><defs data-v-fde0c5aa=""><!----></defs><g data-v-fde0c5aa="" id="7573c4ea-5d9e-4640-87ad-772eb4406f77" stroke="none" fill="#1F1919" transform="matrix(0.3055917024612427,0,0,0.3055917024612427,105.99479377047709,83.93074817108749)"><style></style><path d="M216 117v18h-11.4c1.6-5.6 2.4-11.7 2.4-18 0-35.3-63-72-63-72s-63 36.2-63 72c0 6.3.9 12.3 2.6 18H72v-18l-18-9v126h72v-27c0-9.9 8.1-18 18-18s18 8.1 18 18v27h72V108l-18 9zm0 99h-36v-9c0-19.9-16.1-36-36-36s-36 16.1-36 36v9H72v-63h35.7l-6.9-23.1c-1.2-4.2-1.9-8.5-1.9-12.9 0-4.2 2.4-16.1 24.8-35.5 7.3-6.3 14.6-11.5 20.1-15.2 5.4 3.7 12.6 8.9 19.8 15.1C179.6 95 189 108.3 189 117c0 4.5-.6 8.9-1.8 13.2l-6.4 22.8H216v63z"></path></g><!----></svg>